<?xml version="1.0" encoding="UTF-8" standalone="no"?>
<!DOCTYPE svg PUBLIC "-//W3C//DTD SVG 1.1//EN" "http://www.w3.org/Graphics/SVG/1.1/DTD/svg11.dtd">
<svg version="1.1" xmlns="http://www.w3.org/2000/svg" xmlns:xlink="http://www.w3.org/1999/xlink" preserveAspectRatio="xMidYMid meet" viewBox="0 0 448 448" width="64" height="64"><defs><path d="M450.64 224C450.64 347.63 350.27 448 226.64 448C103.01 448 2.64 347.63 2.64 224C2.64 100.37 103.01 0 226.64 0C350.27 0 450.64 100.37 450.64 224Z" id="a2520ntZz5"></path><path d="M120.76 244.01L125.37 228.94L126.06 215.58L342.23 121.15L355.55 115.33L363.42 133.35L392.4 120.69L396.16 129.3L367.18 141.96L371.97 152.93L368.15 167.66L297.66 198.45L288.17 189.54L181.65 236.07L182.28 246.05L185.16 256.92L181.09 268.96L163.96 274.58L166.15 298.8L148.13 306.67L147.28 264.14L107.33 281.59L107.41 324.46L79.21 336.78L51.84 274.12L120.76 244.01Z" id="b206uHHOAw"></path></defs><g><g><g><use xlink:href="#a2520ntZz5" opacity="1" fill="#000000" fill-opacity="0.7"></use></g><g><use xlink:href="#b206uHHOAw" opacity="1" fill="#ffffff" fill-opacity="1"></use><g><use xlink:href="#b206uHHOAw" opacity="1" fill-opacity="0" stroke="#ffffff" stroke-width="1" stroke-opacity="1"></use></g></g></g></g></svg>