<?xml version="1.0" encoding="UTF-8" standalone="no"?>
<!DOCTYPE svg PUBLIC "-//W3C//DTD SVG 1.1//EN" "http://www.w3.org/Graphics/SVG/1.1/DTD/svg11.dtd">
<svg version="1.1" xmlns="http://www.w3.org/2000/svg" xmlns:xlink="http://www.w3.org/1999/xlink" preserveAspectRatio="xMidYMid meet" viewBox="0 0 1024 512" width="256" height="128"><defs><path d="M6.93 256C6.93 118.02 118.95 6 256.93 6C394.91 6 506.93 118.02 506.93 256C506.93 393.98 394.91 506 256.93 506C118.95 506 6.93 393.98 6.93 256Z" id="a4kTYGwQ0I"></path><path d="M815.85 218.65C815.85 253.97 787.17 282.65 751.85 282.65C716.53 282.65 687.85 253.97 687.85 218.65C687.85 183.32 716.53 154.65 751.85 154.65C787.17 154.65 815.85 183.32 815.85 218.65Z" id="gkqvH8pcH"></path><path d="M834.11 243.76C844.85 243.76 853.55 252.46 853.55 263.2C853.55 267.09 853.55 259.31 853.55 263.2C853.55 273.94 844.85 282.65 834.11 282.65C756.52 282.65 543.18 282.65 465.59 282.65C454.85 282.65 446.15 273.94 446.15 263.2C446.15 259.31 446.15 267.09 446.15 263.2C446.15 252.46 454.85 243.76 465.59 243.76C543.18 243.76 756.52 243.76 834.11 243.76Z" id="b2LamLt1"></path><path d="M541.63 302.2C541.63 337.52 512.95 366.2 477.63 366.2C442.3 366.2 413.63 337.52 413.63 302.2C413.63 266.88 442.3 238.2 477.63 238.2C512.95 238.2 541.63 266.88 541.63 302.2Z" id="bEF8OEOw2"></path></defs><g><g><g><use xlink:href="#a4kTYGwQ0I" opacity="1" fill="#c0d05e" fill-opacity="1"></use><g><use xlink:href="#a4kTYGwQ0I" opacity="1" fill-opacity="0" stroke="#6b1c53" stroke-width="12" stroke-opacity="1"></use></g></g><g><use xlink:href="#gkqvH8pcH" opacity="1" fill="#bbfcc7" fill-opacity="1"></use><g><use xlink:href="#gkqvH8pcH" opacity="1" fill-opacity="0" stroke="#301e08" stroke-width="2" stroke-opacity="1"></use></g></g><g><use xlink:href="#b2LamLt1" opacity="1" fill="#0a010c" fill-opacity="1"></use></g><g><use xlink:href="#bEF8OEOw2" opacity="1" fill="#bbfcc7" fill-opacity="1"></use><g><use xlink:href="#bEF8OEOw2" opacity="1" fill-opacity="0" stroke="#301e08" stroke-width="2" stroke-opacity="1"></use></g></g></g></g></svg>