<?xml version="1.0" encoding="UTF-8" standalone="no"?>
<!DOCTYPE svg PUBLIC "-//W3C//DTD SVG 1.1//EN" "http://www.w3.org/Graphics/SVG/1.1/DTD/svg11.dtd">
<svg version="1.1" xmlns="http://www.w3.org/2000/svg" xmlns:xlink="http://www.w3.org/1999/xlink" preserveAspectRatio="xMidYMid meet" viewBox="0 0 680 512" width="680" height="512"><defs><path d="M6.93 256C6.93 118.02 118.95 6 256.93 6C394.91 6 506.93 118.02 506.93 256C506.93 393.98 394.91 506 256.93 506C118.95 506 6.93 393.98 6.93 256Z" id="b46mFPE7S1"></path><path d="M664 86C664 121.32 635.32 150 600 150C564.68 150 536 121.32 536 86C536 50.68 564.68 22 600 22C635.32 22 664 50.68 664 86Z" id="c1htrGniBJ"></path><path d="M512 417.02C512 452.34 483.32 481.02 448 481.02C412.67 481.02 384 452.34 384 417.02C384 381.69 412.67 353.02 448 353.02C483.32 353.02 512 381.69 512 417.02Z" id="bgtRChJe"></path></defs><g><g><g><use xlink:href="#b46mFPE7S1" opacity="1" fill="#c0d05e" fill-opacity="1"></use><g><use xlink:href="#b46mFPE7S1" opacity="1" fill-opacity="0" stroke="#6b1c53" stroke-width="12" stroke-opacity="1"></use></g></g><g><use xlink:href="#c1htrGniBJ" opacity="1" fill="#bbfcc7" fill-opacity="1"></use><g><use xlink:href="#c1htrGniBJ" opacity="1" fill-opacity="0" stroke="#301e08" stroke-width="2" stroke-opacity="1"></use></g></g><g><use xlink:href="#bgtRChJe" opacity="1" fill="#bbfcc7" fill-opacity="1"></use><g><use xlink:href="#bgtRChJe" opacity="1" fill-opacity="0" stroke="#301e08" stroke-width="2" stroke-opacity="1"></use></g></g></g></g></svg>