<?xml version="1.0" encoding="UTF-8" standalone="no"?>
<!DOCTYPE svg PUBLIC "-//W3C//DTD SVG 1.1//EN" "http://www.w3.org/Graphics/SVG/1.1/DTD/svg11.dtd">
<svg version="1.1" xmlns="http://www.w3.org/2000/svg" xmlns:xlink="http://www.w3.org/1999/xlink" preserveAspectRatio="xMidYMid meet" viewBox="0 0 640 640" width="640" height="640"><defs><path d="M100.2 327.92C100.2 195.46 208.54 87.92 341.99 87.92C475.44 87.92 583.78 195.46 583.78 327.92C583.78 460.38 475.44 567.92 341.99 567.92C208.54 567.92 100.2 460.38 100.2 327.92Z" id="j51KSvGgl"></path><path d="M591.29 191.68C591.29 217.91 569.99 239.21 543.76 239.21C517.53 239.21 496.24 217.91 496.24 191.68C496.24 165.45 517.53 144.16 543.76 144.16C569.99 144.16 591.29 165.45 591.29 191.68Z" id="a2iML9o2iR"></path><path d="M594.36 486.83C594.36 513.06 573.06 534.36 546.83 534.36C520.6 534.36 499.31 513.06 499.31 486.83C499.31 460.6 520.6 439.31 546.83 439.31C573.06 439.31 594.36 460.6 594.36 486.83Z" id="bz6JhX0AU"></path></defs><g><g><g><use xlink:href="#j51KSvGgl" opacity="1" fill="#c0d05e" fill-opacity="1"></use></g><g><use xlink:href="#a2iML9o2iR" opacity="1" fill="#fcbbdb" fill-opacity="1"></use></g><g><use xlink:href="#bz6JhX0AU" opacity="1" fill="#fcbbdb" fill-opacity="1"></use></g></g></g></svg>