<?xml version="1.0" encoding="UTF-8" standalone="no"?>
<!DOCTYPE svg PUBLIC "-//W3C//DTD SVG 1.1//EN" "http://www.w3.org/Graphics/SVG/1.1/DTD/svg11.dtd">
<svg version="1.1" xmlns="http://www.w3.org/2000/svg" xmlns:xlink="http://www.w3.org/1999/xlink" preserveAspectRatio="xMidYMid meet" viewBox="0 0 1024 512" width="256" height="128"><defs><path d="M6.93 256C6.93 118.02 118.95 6 256.93 6C394.91 6 506.93 118.02 506.93 256C506.93 393.98 394.91 506 256.93 506C118.95 506 6.93 393.98 6.93 256Z" id="f1WYC2JPyS"></path><path d="M512 86C512 121.32 483.32 150 448 150C412.68 150 384 121.32 384 86C384 50.68 412.68 22 448 22C483.32 22 512 50.68 512 86Z" id="b7cdDs8vDw"></path><path d="M664 417.02C664 452.34 635.32 481.02 600 481.02C564.67 481.02 536 452.34 536 417.02C536 381.69 564.67 353.02 600 353.02C635.32 353.02 664 381.69 664 417.02Z" id="a1KnrPlmhE"></path></defs><g><g><g><use xlink:href="#f1WYC2JPyS" opacity="1" fill="#c0d05e" fill-opacity="1"></use><g><use xlink:href="#f1WYC2JPyS" opacity="1" fill-opacity="0" stroke="#6b1c53" stroke-width="12" stroke-opacity="1"></use></g></g><g><use xlink:href="#b7cdDs8vDw" opacity="1" fill="#bbfcc7" fill-opacity="1"></use><g><use xlink:href="#b7cdDs8vDw" opacity="1" fill-opacity="0" stroke="#301e08" stroke-width="2" stroke-opacity="1"></use></g></g><g><use xlink:href="#a1KnrPlmhE" opacity="1" fill="#bbfcc7" fill-opacity="1"></use><g><use xlink:href="#a1KnrPlmhE" opacity="1" fill-opacity="0" stroke="#301e08" stroke-width="2" stroke-opacity="1"></use></g></g></g></g></svg>