<?xml version="1.0" encoding="UTF-8" standalone="no"?>
<!DOCTYPE svg PUBLIC "-//W3C//DTD SVG 1.1//EN" "http://www.w3.org/Graphics/SVG/1.1/DTD/svg11.dtd">
<svg version="1.1" xmlns="http://www.w3.org/2000/svg" xmlns:xlink="http://www.w3.org/1999/xlink" preserveAspectRatio="xMidYMid meet" viewBox="0 0 512 512" width="128" height="128"><defs><path d="M6 256C6 118.02 118.02 6 256 6C393.98 6 506 118.02 506 256C506 393.98 393.98 506 256 506C118.02 506 6 393.98 6 256Z" id="n4pfHy98L"></path><path d="M512 81.2C512 116.52 483.32 145.2 448 145.2C412.68 145.2 384 116.52 384 81.2C384 45.88 412.68 17.2 448 17.2C483.32 17.2 512 45.88 512 81.2Z" id="gc3Fct0Eb"></path><path d="M512 417.02C512 452.34 483.32 481.02 448 481.02C412.67 481.02 384 452.34 384 417.02C384 381.69 412.67 353.02 448 353.02C483.32 353.02 512 381.69 512 417.02Z" id="baWH40gZD"></path></defs><g><g><g><use xlink:href="#n4pfHy98L" opacity="1" fill="#c0d05e" fill-opacity="1"></use><g><use xlink:href="#n4pfHy98L" opacity="1" fill-opacity="0" stroke="#6b1c53" stroke-width="12" stroke-opacity="1"></use></g></g><g><use xlink:href="#gc3Fct0Eb" opacity="1" fill="#bbfcc7" fill-opacity="1"></use><g><use xlink:href="#gc3Fct0Eb" opacity="1" fill-opacity="0" stroke="#301e08" stroke-width="2" stroke-opacity="1"></use></g></g><g><use xlink:href="#baWH40gZD" opacity="1" fill="#bbfcc7" fill-opacity="1"></use><g><use xlink:href="#baWH40gZD" opacity="1" fill-opacity="0" stroke="#301e08" stroke-width="2" stroke-opacity="1"></use></g></g></g></g></svg>