<?xml version="1.0" encoding="UTF-8" standalone="no"?>
<!DOCTYPE svg PUBLIC "-//W3C//DTD SVG 1.1//EN" "http://www.w3.org/Graphics/SVG/1.1/DTD/svg11.dtd">
<svg version="1.1" xmlns="http://www.w3.org/2000/svg" xmlns:xlink="http://www.w3.org/1999/xlink" preserveAspectRatio="xMidYMid meet" viewBox="0 0 448 448" width="96" height="96"><defs><path d="M448 224C448 347.63 347.63 448 224 448C100.37 448 0 347.63 0 224C0 100.37 100.37 0 224 0C347.63 0 448 100.37 448 224Z" id="a1G8Gsz2R"></path><path d="M232.21 365.94L130.48 365.94L130.48 118.05L89.55 252.56L42.77 242.51L83.7 89.15L105.07 73.34L125.8 58.02C127.25 58.71 128.16 59.14 128.52 59.31C191.32 89.15 264.31 88.71 326.74 58.11C326.77 58.1 326.83 58.07 326.93 58.02" id="c2mcH5er0"></path><clipPath id="clipe30FN8IXUM"><use xlink:href="#c2mcH5er0" opacity="1"></use></clipPath><path d="M219.77 365.94L321.51 365.94L321.51 118.05L362.43 252.56L409.21 242.51L368.28 89.15L346.91 73.34L326.18 58.02C324.73 58.71 323.82 59.14 323.46 59.31C260.66 89.15 187.68 88.71 125.24 58.11C125.21 58.1 125.15 58.07 125.05 58.02" id="byPTTs9ix"></path><clipPath id="clipegwAX8HCg"><use xlink:href="#byPTTs9ix" opacity="1"></use></clipPath></defs><g><g><g><use xlink:href="#a1G8Gsz2R" opacity="1" fill="#000000" fill-opacity="0.7"></use></g><g><g clip-path="url(#clipe30FN8IXUM)"><use xlink:href="#c2mcH5er0" opacity="1" fill-opacity="0" stroke="#ffffff" stroke-width="200" stroke-opacity="1"></use></g></g><g><g clip-path="url(#clipegwAX8HCg)"><use xlink:href="#byPTTs9ix" opacity="1" fill-opacity="0" stroke="#ffffff" stroke-width="200" stroke-opacity="1"></use></g></g></g></g></svg>