<?xml version="1.0" encoding="UTF-8" standalone="no"?>
<!DOCTYPE svg PUBLIC "-//W3C//DTD SVG 1.1//EN" "http://www.w3.org/Graphics/SVG/1.1/DTD/svg11.dtd">
<svg version="1.1" xmlns="http://www.w3.org/2000/svg" xmlns:xlink="http://www.w3.org/1999/xlink" preserveAspectRatio="xMidYMid meet" viewBox="0 0 640 640" width="96" height="96"><defs><path d="M453.94 230.93C453.94 354.56 353.57 454.93 229.94 454.93C106.31 454.93 5.94 354.56 5.94 230.93C5.94 107.3 106.31 6.93 229.94 6.93C353.57 6.93 453.94 107.3 453.94 230.93Z" id="bKN4CMDlQ"></path><path d="M238.15 372.87L136.42 372.87L136.42 124.98L95.49 259.49L48.71 249.44L89.64 96.08L111.01 80.27L131.74 64.95C133.19 65.64 134.1 66.07 134.46 66.24C197.26 96.08 270.25 95.64 332.68 65.04C332.71 65.03 332.77 65 332.87 64.95" id="aucEwUNp"></path><clipPath id="clipdvMSIlW7a"><use xlink:href="#aucEwUNp" opacity="1"></use></clipPath><path d="M225.71 372.87L327.45 372.87L327.45 124.98L368.37 259.49L415.15 249.44L374.22 96.08L352.85 80.27L332.12 64.95C330.67 65.64 329.76 66.07 329.4 66.24C266.6 96.08 193.62 95.64 131.18 65.04C131.15 65.03 131.09 65 130.99 64.95" id="bI9cN1vol"></path><clipPath id="clipaSSxQjxLW"><use xlink:href="#bI9cN1vol" opacity="1"></use></clipPath></defs><g><g><g><use xlink:href="#bKN4CMDlQ" opacity="1" fill="#000000" fill-opacity="0.7"></use></g><g><g clip-path="url(#clipdvMSIlW7a)"><use xlink:href="#aucEwUNp" opacity="1" fill-opacity="0" stroke="#ffffff" stroke-width="200" stroke-opacity="1"></use></g></g><g><g clip-path="url(#clipaSSxQjxLW)"><use xlink:href="#bI9cN1vol" opacity="1" fill-opacity="0" stroke="#ffffff" stroke-width="200" stroke-opacity="1"></use></g></g></g></g></svg>